# xmcd
#
# Track frame offsets: 
#        187
#        13534
#        26847
#        37419
#        50154
#        58627
#        71947
#        83207
#        96677
#        110904
#        123284
#        135637
#        147982
#        159367
#        174067
#        185854
#        199039
#        212067
#        223634
#        238422
#        251419
#        264217
#
# Disc length: 3704 seconds
#
# Revision: 0
# Processed by: cddbd v1.5.2PL0 Copyright (c) Steve Scherf et al.
# Submitted via: ExactAudioCopy v1.0b4
#
DISCID=590e7616
DTITLE=Various Artist - The Best of COUNTRY STANDARDS
DYEAR=1992
DGENRE=Country
TTITLE0=コンウェイ・トゥイッティ&ロレッタ・リン - 色あせし恋
TTITLE1=ジョージ・ストレイト - ラヴシック・ブルース
TTITLE2=ロイ・ドラスキー - 浮気はやめなよ
TTITLE3=ドナ・ファーゴ - ファニー・フェイス
TTITLE4=コンウェイ・トゥイッティ - ジャンバラヤ
TTITLE5=ロレッタ・リン - たそがれのワルツ(知りたくないの)
TTITLE6=ビル・アンダースン - ワンス・ア・デイ
TTITLE7=コンウェイ・トゥイッティ&ロレッタ・リン - リリース・ミー
TTITLE8=ジョニー・カーヴァー - 幸せの黄色いリボン
TTITLE9=ロレッタ・リン - ユア・チーティン・ハート
TTITLE10=アーネスト・タブ&ロレッタ・リン - ディア・ジョン・レター
TTITLE11=フレディ・フェンダー - ヴァイア・コン・ディオス
TTITLE12=ロレッタ・リン - ローズ・ガーデン
TTITLE13=アーネスト・タブ&レッド・フォーリー - ケンタッキー・ワルツ
TTITLE14=ロレッタ・リン - 故郷へ帰りたい
TTITLE15=ジミー・デイヴィス - 想い出のグリーン・グラス
TTITLE16=ボビー・ヘルムス - フローライン
TTITLE17=ジミー・デイヴィス - ユー・アー・マイ・サンシャイン
TTITLE18=ウェッブ・ピアース - オールド・カントリー・チャーチ
TTITLE19=レッド・フォーリー - 涙もかれて
TTITLE20=パッツィ・クライン - ひどい仕打ちに
TTITLE21=アーネスト・タブ&レッド・フォーリー - グッドナイト・アイリーン
EXTD=
EXTT0=
EXTT1=
EXTT2=
EXTT3=
EXTT4=
EXTT5=
EXTT6=
EXTT7=
EXTT8=
EXTT9=
EXTT10=
EXTT11=
EXTT12=
EXTT13=
EXTT14=
EXTT15=
EXTT16=
EXTT17=
EXTT18=
EXTT19=
EXTT20=
EXTT21=
PLAYORDER=
